<?xml version="1.0" encoding="UTF-8"?>
<svg version="1.1" xmlns="http://www.w3.org/2000/svg" width="1024" height="1024">
<path d="M0 0 C337.92 0 675.84 0 1024 0 C1024 337.92 1024 675.84 1024 1024 C686.08 1024 348.16 1024 0 1024 C0 686.08 0 348.16 0 0 Z " fill="#F9F9F9" transform="translate(0,0)"/>
<path d="M0 0 C39.96079019 -0.72889853 80.94407436 10.90165739 112.453125 35.87109375 C114.5563039 37.53190661 116.63895671 39.1636128 118.8359375 40.69921875 C119.41085937 41.1684375 119.98578125 41.63765625 120.578125 42.12109375 C120.578125 42.78109375 120.578125 43.44109375 120.578125 44.12109375 C121.11179687 44.32089844 121.64546875 44.52070312 122.1953125 44.7265625 C125.63733055 46.74098946 128.03124814 49.50148701 130.703125 52.43359375 C131.27716064 53.06096436 131.85119629 53.68833496 132.44262695 54.3347168 C164.94728972 90.28184697 180.44194752 135.60237161 178.7734375 183.73193359 C176.75594883 218.74040581 164.04696882 254.6524729 140.578125 281.12109375 C139.33289063 282.52875 139.33289063 282.52875 138.0625 283.96484375 C135.28409874 287.06448821 132.44289228 290.10131902 129.578125 293.12109375 C128.85834473 293.88389648 128.85834473 293.88389648 128.12402344 294.66210938 C96.44501123 328.01512959 51.95018615 343.53929813 6.57421875 345.375 C2.23117397 345.47223235 -2.08533052 345.36582436 -6.421875 345.12109375 C-7.09524902 345.08387207 -7.76862305 345.04665039 -8.46240234 345.00830078 C-46.89850813 342.48895939 -85.51209212 324.14590157 -112.99804688 297.49365234 C-114.25212107 296.28473514 -115.53054693 295.10118803 -116.8125 293.921875 C-138.86717488 273.09686725 -153.24108787 242.90676062 -161.421875 214.12109375 C-161.6477832 213.35297363 -161.87369141 212.58485352 -162.10644531 211.79345703 C-173.6170734 170.83436339 -164.20319474 123.77330461 -144.421875 87.12109375 C-142.01622668 82.93018974 -139.29405358 79.00531951 -136.421875 75.12109375 C-135.72578125 74.14269531 -135.0296875 73.16429687 -134.3125 72.15625 C-129.57601224 65.63098229 -124.43085007 59.67465004 -118.921875 53.80859375 C-116.94872941 51.68746224 -115.07165573 49.54528333 -113.234375 47.30859375 C-88.99480221 18.99514318 -45.72981867 3.59455633 -9.609375 0.37109375 C-6.40684221 0.20446451 -3.20482336 0.1134127 0 0 Z " fill="#F9F9F9" transform="translate(655.421875,513.87890625)"/>
<path d="M0 0 C1.13133289 -0.04207647 2.26266578 -0.08415295 3.42828149 -0.12750447 C5.29366286 -0.18964188 5.29366286 -0.18964188 7.19672871 -0.25303459 C8.53154656 -0.30001476 9.86635689 -0.34720892 11.20116025 -0.39459884 C14.87458939 -0.52319673 18.54821922 -0.6448102 22.22195518 -0.76429057 C24.57287919 -0.84095897 26.92374903 -0.91914689 29.27461529 -0.99756432 C59.22319696 -1.99043372 89.17674169 -2.62105595 119.13767369 -3.09835071 C124.06001293 -3.17695043 128.98230303 -3.25830712 133.90456867 -3.34138298 C134.88412182 -3.35786766 135.86367497 -3.37435233 136.87291155 -3.39133655 C150.64748526 -3.62914369 164.409772 -4.02373218 178.17646374 -4.54384574 C201.85038014 -5.43821677 225.51166296 -6.0407362 249.20364094 -6.07819939 C250.57150164 -6.08132879 250.57150164 -6.08132879 251.96699589 -6.08452141 C332.79182983 -6.19322366 332.79182983 -6.19322366 363.27549458 23.80317879 C374.51584497 35.53064115 384.01755423 48.56829639 391.91443062 62.74446487 C393.22016365 65.39952418 393.22016365 65.39952418 395.47317219 66.30461311 C395.47317219 66.96461311 395.47317219 67.62461311 395.47317219 68.30461311 C396.46317219 68.63461311 397.45317219 68.96461311 398.47317219 69.30461311 C400.12160969 70.97648811 400.12160969 70.97648811 401.84817219 73.05461311 C406.32267937 78.4076765 411.3129201 83.12895322 416.47317219 87.80461311 C420.23823288 91.21610211 423.89985951 94.68954219 427.47317219 98.30461311 C428.07000813 98.88984749 428.66684406 99.47508186 429.28176594 100.07805061 C432.13744417 102.8857918 434.86107378 105.7146107 437.41067219 108.80461311 C442.18028301 114.44315054 447.86912958 118.92057957 453.82784748 123.24647713 C473.33355256 137.51316582 496.02353125 155.07550001 500.57569361 180.11264634 C503.82363291 201.44087815 502.40958256 223.48296786 501.17210913 244.9261806 C500.63245121 254.47613553 500.40749824 264.02701845 500.19470739 273.58889413 C499.87080375 287.68273383 499.44056055 301.77396727 498.70887089 315.85299683 C498.63166245 317.35601031 498.5586551 318.85924662 498.49024296 320.36268616 C498.04627221 329.93018522 497.61548529 338.16230001 490.47317219 345.30461311 C485.66447636 347.9357863 481.93013481 348.88928768 476.47317219 348.30461311 C470.42769774 346.50157687 466.94358011 343.42870535 463.47317219 338.30461311 C462.43554713 335.19173795 462.33586931 333.00860593 462.3149538 329.74279976 C462.30027058 328.00750511 462.30027058 328.00750511 462.28529072 326.23715401 C462.27953526 324.96688866 462.27377979 323.69662331 462.26784992 322.38786507 C462.25827045 321.03768298 462.24826033 319.6875039 462.23785114 318.33732796 C462.21080344 314.67028634 462.18979315 311.00323185 462.16984916 307.33614564 C462.14798878 303.50441849 462.12060034 299.672731 462.09379292 295.84103584 C462.04386673 288.58442575 461.99892762 281.32779363 461.95577055 274.07114047 C461.90639755 265.81001693 461.85147965 257.54893317 461.79609096 249.28784811 C461.68227205 232.29347323 461.5754328 215.2990614 461.47317219 198.30461311 C460.81240492 198.30314655 460.15163765 198.30167999 459.47084713 198.30016899 C443.36095767 198.26304787 427.251319 198.20396325 411.14160824 198.12071037 C403.35092181 198.08097367 395.56033561 198.04855403 387.76955891 198.03361702 C380.97570453 198.02057253 374.18207118 197.99353701 367.38834131 197.95000005 C363.79414347 197.92744763 360.20021759 197.91169866 356.60594273 197.91272926 C352.58432506 197.91361938 348.56350442 197.88326089 344.54201984 197.85051155 C342.77255497 197.8580571 342.77255497 197.8580571 340.96734333 197.86575508 C330.80534926 197.73810646 322.71698576 195.37035503 315.22707844 188.28898811 C281.40025055 150.01720956 306.47317219 86.38282098 306.47317219 35.30461311 C205.49317219 35.63461311 104.51317219 35.96461311 0.47317219 36.30461311 C0.14317219 231.66461311 -0.18682781 427.02461311 -0.52682781 628.30461311 C73.39317219 628.30461311 147.31317219 628.30461311 223.47317219 628.30461311 C234.31516114 633.72560759 234.31516114 633.72560759 236.47317219 639.30461311 C237.32110004 644.89493392 237.28131113 649.59508843 234.84817219 654.74211311 C231.44135878 658.41788547 228.32726275 661.68658293 223.47317219 663.30461311 C220.48476459 663.40748283 217.51940856 663.45241683 214.5306673 663.45178413 C213.14188932 663.45729917 213.14188932 663.45729917 211.72505522 663.46292561 C208.60918762 663.47397667 205.49335335 663.47780875 202.37746906 663.48161507 C200.14859632 663.48787877 197.91972462 663.49452549 195.69085407 663.50152779 C189.62437454 663.51894907 183.55790289 663.52949321 177.49140453 663.53773332 C173.70072384 663.54288241 169.91004561 663.54895826 166.11936665 663.55524445 C155.61764324 663.57211741 145.11592097 663.58675076 134.61418629 663.59399319 C131.88912168 663.595903 129.16405708 663.59782334 126.4389925 663.59977913 C125.76171425 663.60026287 125.084436 663.60074661 124.38663417 663.60124501 C113.42697485 663.60953672 102.46742498 663.63485809 91.50781339 663.66735981 C80.24709228 663.70048112 68.9864246 663.71811426 57.7256484 663.72163743 C51.40675173 663.72398659 45.08802792 663.73292956 38.76917744 663.7580986 C32.82003604 663.78141119 26.87118092 663.78559952 20.92200565 663.77533722 C18.74321127 663.77484249 16.56440265 663.78114435 14.38565159 663.79489326 C-1.51815277 663.8896042 -13.45161974 662.88431915 -25.43307781 651.49211311 C-33.95288817 642.53909206 -35.68068962 632.32703897 -35.65825558 620.41773415 C-35.66030821 619.40958896 -35.66236084 618.40144378 -35.66447568 617.36274874 C-35.67015847 613.9632718 -35.66868684 610.5638352 -35.66726971 607.16435432 C-35.66985261 604.71092256 -35.67286556 602.25749122 -35.67627311 599.80406046 C-35.68350684 593.75460039 -35.68604617 587.70515397 -35.68660216 581.65569091 C-35.68751582 574.41055862 -35.69418345 567.16543449 -35.70094899 559.92030571 C-35.71701187 542.40772884 -35.72291275 524.89515284 -35.72769774 507.38256994 C-35.73003356 499.09745035 -35.73363621 490.81233146 -35.73739311 482.52721242 C-35.75022934 454.16523017 -35.7609481 425.8032483 -35.76439571 397.4412632 C-35.76461735 395.66070725 -35.76483913 393.88015129 -35.76506107 392.09959534 C-35.76528171 390.31473925 -35.76550219 388.52988316 -35.76572251 386.74502707 C-35.76616507 383.16430314 -35.76661218 379.58357922 -35.76706219 376.0028553 C-35.76717158 375.11504336 -35.76728097 374.22723141 -35.76739367 373.31251607 C-35.77102374 344.52970842 -35.78694151 315.74692596 -35.81025255 286.96412795 C-35.83485421 256.53210163 -35.84856873 226.10008971 -35.84976363 195.66805315 C-35.84993508 192.32663568 -35.85015051 188.98521821 -35.85039806 185.64380074 C-35.85048172 184.40967771 -35.85048172 184.40967771 -35.85056706 183.1506229 C-35.85171727 169.9154193 -35.86273678 156.68024156 -35.87728512 143.44504669 C-35.89165883 130.13847845 -35.89488218 116.83194334 -35.88684514 103.52536947 C-35.88239288 95.62292609 -35.88623329 87.72058973 -35.90208365 79.81816044 C-35.91299929 73.91267144 -35.90817986 68.00726253 -35.89731178 62.10177118 C-35.89535183 59.71610474 -35.8984469 57.33042758 -35.90715614 54.94477624 C-36.01850669 22.37700653 -36.01850669 22.37700653 -24.67526531 10.33976936 C-17.65637381 3.72635167 -9.59501904 0.34200674 0 0 Z " fill="#262626" transform="translate(257.5268278121948,157.69538688659668)"/>
<path d="M0 0 C39.96079019 -0.72889853 80.94407436 10.90165739 112.453125 35.87109375 C114.5563039 37.53190661 116.63895671 39.1636128 118.8359375 40.69921875 C119.41085937 41.1684375 119.98578125 41.63765625 120.578125 42.12109375 C120.578125 42.78109375 120.578125 43.44109375 120.578125 44.12109375 C121.11179687 44.32089844 121.64546875 44.52070312 122.1953125 44.7265625 C125.63733055 46.74098946 128.03124814 49.50148701 130.703125 52.43359375 C131.27716064 53.06096436 131.85119629 53.68833496 132.44262695 54.3347168 C164.94728972 90.28184697 180.44194752 135.60237161 178.7734375 183.73193359 C176.75594883 218.74040581 164.04696882 254.6524729 140.578125 281.12109375 C139.33289063 282.52875 139.33289063 282.52875 138.0625 283.96484375 C135.28409874 287.06448821 132.44289228 290.10131902 129.578125 293.12109375 C128.85834473 293.88389648 128.85834473 293.88389648 128.12402344 294.66210938 C96.44501123 328.01512959 51.95018615 343.53929813 6.57421875 345.375 C2.23117397 345.47223235 -2.08533052 345.36582436 -6.421875 345.12109375 C-7.09524902 345.08387207 -7.76862305 345.04665039 -8.46240234 345.00830078 C-46.89850813 342.48895939 -85.51209212 324.14590157 -112.99804688 297.49365234 C-114.25212107 296.28473514 -115.53054693 295.10118803 -116.8125 293.921875 C-138.86717488 273.09686725 -153.24108787 242.90676062 -161.421875 214.12109375 C-161.6477832 213.35297363 -161.87369141 212.58485352 -162.10644531 211.79345703 C-173.6170734 170.83436339 -164.20319474 123.77330461 -144.421875 87.12109375 C-142.01622668 82.93018974 -139.29405358 79.00531951 -136.421875 75.12109375 C-135.72578125 74.14269531 -135.0296875 73.16429687 -134.3125 72.15625 C-129.57601224 65.63098229 -124.43085007 59.67465004 -118.921875 53.80859375 C-116.94872941 51.68746224 -115.07165573 49.54528333 -113.234375 47.30859375 C-88.99480221 18.99514318 -45.72981867 3.59455633 -9.609375 0.37109375 C-6.40684221 0.20446451 -3.20482336 0.1134127 0 0 Z M-92.421875 74.12109375 C-93.09734375 74.73210937 -93.7728125 75.343125 -94.46875 75.97265625 C-117.88380986 97.98281252 -131.54997474 133.73742775 -132.6953125 165.4140625 C-133.30168363 192.83639903 -126.97621877 218.13183766 -113.421875 242.12109375 C-112.88175781 243.08660156 -112.34164062 244.05210937 -111.78515625 245.046875 C-98.59333529 267.11842048 -78.03210673 285.27003 -55.421875 297.12109375 C-54.54402344 297.58128906 -53.66617188 298.04148437 -52.76171875 298.515625 C-25.18311151 311.94261307 6.80244079 314.6287143 36.578125 308.12109375 C37.25939453 307.97607422 37.94066406 307.83105469 38.64257812 307.68164062 C57.47139326 303.46296332 76.48639095 294.0596557 91.578125 282.12109375 C92.53460937 281.38246094 93.49109375 280.64382813 94.4765625 279.8828125 C122.29805629 257.81617564 138.76232539 225.0465239 144.03125 190.1171875 C144.34919448 187.1092654 144.49284502 184.14497977 144.578125 181.12109375 C144.60390625 180.41678223 144.6296875 179.7124707 144.65625 178.98681641 C145.54879431 152.18259519 139.58013351 128.56082576 126.578125 105.12109375 C126.22492188 104.48333008 125.87171875 103.84556641 125.5078125 103.18847656 C119.14776356 91.85820952 111.91320065 81.23140835 102.578125 72.12109375 C101.95550781 71.46367188 101.33289063 70.80625 100.69140625 70.12890625 C78.49956889 46.9261609 42.87328909 35.09181488 11.37890625 33.9296875 C-28.21097331 33.0838476 -63.60949727 46.97473786 -92.421875 74.12109375 Z " fill="#262627" transform="translate(655.421875,513.87890625)"/>
<path d="M0 0 C4.89860201 4.89860201 6.11028202 9.85704358 6.375 16.625 C6.0240434 33.3264055 -3.83741649 45.5254732 -15.24487305 56.65649414 C-16.83868161 58.21306998 -18.41518495 59.78579295 -19.99023438 61.36132812 C-27.70390226 69 -27.70390226 69 -30 69 C-30 69.66 -30 70.32 -30 71 C-31.328125 72.33984375 -31.328125 72.33984375 -33.25 73.9375 C-36.85601665 76.99657233 -40.3497611 80.15593532 -43.8125 83.375 C-48.52108506 87.72921537 -53.38561391 91.82588925 -58.38671875 95.84375 C-60.828568 97.85854938 -63.13009292 99.95902768 -65.4375 102.125 C-77.24110305 112.81789719 -90.16727585 122.96342622 -105 129 C-105.85335937 129.35449219 -106.70671875 129.70898438 -107.5859375 130.07421875 C-118.94047464 134.13466002 -131.08776224 132.69975247 -142 128 C-155.48056364 120.70087925 -166.30749055 101.97054801 -172 88 C-172.92223963 83.15524768 -173.08437405 78.32424324 -170.96484375 73.78125 C-166.60630878 68.05080848 -160.68001209 66.5050997 -153.8125 65.5625 C-149.56515758 66.22319771 -146.42741293 68.27011335 -143.67504883 71.60571289 C-142.39227615 73.45585119 -141.18612989 75.33653527 -140 77.25 C-139.13701223 78.59217309 -138.27243841 79.93332776 -137.40625 81.2734375 C-136.99503906 81.91506836 -136.58382812 82.55669922 -136.16015625 83.21777344 C-132.41898406 89.47336198 -132.41898406 89.47336198 -127 94 C-117.7599343 94.99000704 -111.26440542 90.93549845 -104.125 85.375 C-91.89133266 75.17388554 -80.21905751 64.2316352 -70.2734375 51.7734375 C-67.98263988 48.97882185 -65.58499837 46.3337443 -63.125 43.6875 C-56.38113557 36.34858871 -50.34937162 28.46058338 -44.36328125 20.5 C-34.03100599 6.78971454 -18.45840162 -12.34581546 0 0 Z " fill="#272727" transform="translate(744,621)"/>
<path d="M0 0 C0.92054686 -0.00623996 1.84109372 -0.01247993 2.78953594 -0.01890898 C5.86344811 -0.03481966 8.93656522 -0.0222421 12.01048279 -0.00964355 C14.21850547 -0.01506547 16.42652453 -0.02218852 18.63453674 -0.03088379 C24.62409382 -0.04911049 30.61337512 -0.04205241 36.60293698 -0.02936745 C42.87151916 -0.01923778 49.14007778 -0.02863293 55.40866089 -0.03491211 C66.60843947 -0.04265402 77.80811685 -0.03022771 89.0078712 -0.00987476 C99.15805512 0.00799984 109.30805607 0.00488741 119.45823669 -0.0135498 C131.25366942 -0.03496558 143.04901356 -0.04291911 154.84446949 -0.03110075 C161.08542998 -0.02486367 167.32626447 -0.02403633 173.56721687 -0.0372467 C179.4335409 -0.04879694 185.29951916 -0.04079418 191.16580582 -0.01766968 C193.31927478 -0.01237847 195.47277282 -0.01390336 197.62623024 -0.02272034 C200.56469023 -0.03364266 203.5020405 -0.0199518 206.44042969 0 C207.72024691 -0.01338433 207.72024691 -0.01338433 209.02591902 -0.02703905 C214.37832453 0.04350852 217.40001813 0.9741223 221.65672302 4.50793457 C226.08635331 9.53616354 226.96234993 12.39186451 226.86766052 18.97277832 C226.4459738 24.04082802 224.33974736 27.09690263 220.59422302 30.32043457 C215.92306844 33.79895394 212.5804578 33.65404834 206.91471863 33.64837646 C205.99844389 33.65134759 205.08216916 33.65431871 204.13812852 33.65737987 C201.04893999 33.66609403 197.95979008 33.66757741 194.87059021 33.66906738 C192.66330888 33.67369367 190.45602836 33.67871807 188.24874878 33.68411255 C182.23832576 33.69725756 176.22791391 33.70368569 170.21747875 33.70812321 C166.464867 33.71105078 162.71225834 33.715155 158.95964813 33.71962738 C148.57118764 33.73173977 138.18272933 33.74212043 127.79426193 33.74550247 C126.79656256 33.74583182 126.79656256 33.74583182 125.77870764 33.74616782 C125.1119733 33.7463861 124.44523896 33.74660438 123.75830054 33.74682927 C122.40722132 33.74727274 121.05614209 33.7477193 119.70506287 33.74816895 C118.69978768 33.74850109 118.69978768 33.74850109 117.6742039 33.74883994 C106.81782223 33.7527869 95.96150772 33.77023685 85.10515198 33.79352847 C73.96087848 33.81724486 62.81662947 33.82944652 51.67232823 33.83087039 C45.41453129 33.83191979 39.15682902 33.83785611 32.89905548 33.85569 C27.01235557 33.87213927 21.1258218 33.87434142 15.23910713 33.86555099 C13.07756926 33.86477891 10.91602257 33.86914577 8.75450706 33.87900925 C5.80502632 33.89167969 2.85613832 33.88587843 -0.09333801 33.87542725 C-1.37827113 33.88751185 -1.37827113 33.88751185 -2.68916249 33.89984059 C-7.66611994 33.85855887 -10.9785779 33.16983446 -15.34327698 30.50793457 C-15.34327698 29.84793457 -15.34327698 29.18793457 -15.34327698 28.50793457 C-16.00327698 28.50793457 -16.66327698 28.50793457 -17.34327698 28.50793457 C-20.90384239 23.01872957 -21.15376404 17.84446977 -20.34327698 11.50793457 C-18.82134935 6.57978797 -15.90160594 3.77463568 -11.38971341 1.32458591 C-7.65849965 -0.16439302 -3.97028563 -0.04163009 0 0 Z " fill="#262626" transform="translate(341.34327697753906,449.4920654296875)"/>
<path d="M0 0 C1.63512955 -0.00514367 3.27025354 -0.01242832 4.90536499 -0.02168274 C9.32898411 -0.04014668 13.75199803 -0.02729065 18.17559171 -0.00759244 C22.8127822 0.00883412 27.44993557 -0.00002427 32.08714294 -0.00511169 C39.8721581 -0.00962773 47.6569326 0.00620786 55.44189453 0.03417969 C64.43408584 0.06624064 73.42584347 0.0662099 82.41806561 0.04896492 C91.08069058 0.03308609 99.74315701 0.03984138 108.40577507 0.05690193 C112.08705825 0.06376283 115.76821397 0.0627499 119.44949532 0.05535698 C123.7859738 0.0476801 128.12196029 0.05986575 132.45835495 0.08720589 C134.04700066 0.09407571 135.63569244 0.09420274 137.22433662 0.08699036 C152.14977701 0.0270512 152.14977701 0.0270512 157.87280273 4.63110352 C162.55029931 9.80096815 163.22561637 13.02611252 163.15405273 19.86938477 C162.62960918 25.01912908 159.99235931 27.64482748 156.24780273 30.94360352 C152.32760821 33.72900489 150.11023352 33.75989242 145.29473877 33.77154541 C144.61122652 33.77451653 143.92771427 33.77748765 143.22348952 33.78054881 C140.92201137 33.78925398 138.62058513 33.7907456 136.3190918 33.79223633 C134.6733794 33.79686328 133.02766807 33.80188777 131.38195801 33.80728149 C126.902478 33.82042083 122.423013 33.82685364 117.94351673 33.83129215 C115.14570984 33.83422089 112.34790706 33.83832536 109.55010223 33.84279633 C100.79888625 33.85647636 92.04767965 33.86614009 83.29645371 33.86999822 C73.19022424 33.87447796 63.08413008 33.89201983 52.97794175 33.92099881 C45.16980151 33.94261179 37.36169934 33.95270232 29.5535295 33.95403934 C24.88862267 33.9550878 20.22384296 33.96100417 15.55896759 33.97885895 C11.16934563 33.9953326 6.77994641 33.99749858 2.39030457 33.98871994 C0.78025974 33.98794914 -0.82979702 33.99229797 -2.43981171 34.00217819 C-4.64053905 34.01488986 -6.84047661 34.00902575 -9.04119873 33.99859619 C-10.27196011 34.00006275 -11.50272148 34.00152931 -12.77077866 34.00304031 C-17.70278446 33.45650704 -20.97455146 31.8477852 -24.37719727 28.25610352 C-27.65865408 23.33391829 -28.73337484 19.5918497 -28.12719727 13.63110352 C-26.47194702 8.13106313 -23.73964863 4.55525262 -18.80970955 1.6500721 C-12.85890306 -0.61037789 -6.28335063 -0.05023554 0 0 Z " fill="#252626" transform="translate(350.127197265625,367.368896484375)"/>
<path d="M0 0 C4.18370475 2.09185237 6.8852765 4.62382899 10.11035156 7.89916992 C10.71256027 8.50269287 11.31476898 9.10621582 11.93522644 9.72802734 C13.92499478 11.72428552 15.90769065 13.72742407 17.890625 15.73046875 C19.27770736 17.12382556 20.66530883 18.51666577 22.05340576 19.90901184 C25.71078161 23.57969574 29.36255974 27.25589416 33.01275635 30.93371582 C38.83938287 36.80342011 44.67260581 42.66654804 50.50926971 48.52626991 C52.53891566 50.56606338 54.56506686 52.60928005 56.59088135 54.65287781 C62.02514464 60.12243052 67.42789789 65.54729966 73.3102417 70.54078674 C76.24031111 73.07108716 78.95629498 75.81341772 81.6875 78.5546875 C82.27547363 79.14170441 82.86344727 79.72872131 83.46923828 80.33352661 C84.6937726 81.55738762 85.91707411 82.78248333 87.13916016 84.00878906 C89.02001047 85.89506822 90.90623592 87.77585667 92.79296875 89.65625 C93.98730054 90.85124139 95.18132273 92.04654231 96.375 93.2421875 C96.94049561 93.80565887 97.50599121 94.36913025 98.08862305 94.94967651 C102 98.88500598 102 98.88500598 102 100 C68.34 100 34.68 100 0 100 C0 67 0 34 0 0 Z " fill="#F9F9F9" transform="translate(598,221)"/>
<path d="M0 0 C1.14626322 0.97866338 2.29199788 1.95794587 3.4375 2.9375 C4.07558594 3.48277344 4.71367188 4.02804687 5.37109375 4.58984375 C6.26991149 5.36795695 7.15936528 6.15936528 8 7 C8.10128737 9.11492747 8.13077868 11.23329751 8.13371277 13.35064697 C8.13597833 14.02175971 8.13824388 14.69287244 8.14057809 15.38432193 C8.14694555 17.64978644 8.14608697 19.91519155 8.14526367 22.18066406 C8.14825354 23.79829486 8.15165566 25.41592494 8.15544128 27.03355408 C8.16430509 31.44071862 8.16662045 35.84786376 8.16725707 40.25503635 C8.16820458 43.93041781 8.17188123 47.60579471 8.17542917 51.28117442 C8.18358348 59.95291419 8.18601259 68.62464356 8.18530273 77.29638672 C8.18470232 86.24689596 8.19524463 95.19734486 8.2110464 104.14783883 C8.22411834 111.82515887 8.22948675 119.50245918 8.22884732 127.17979026 C8.22859215 131.76807761 8.23145389 136.35631142 8.24202538 140.94458771 C8.25170002 145.26193111 8.25178988 149.57916973 8.24450874 153.8965168 C8.24346197 155.48117539 8.24583128 157.06584047 8.2518692 158.6504879 C8.25957943 160.81425493 8.25495085 162.97765932 8.24723816 165.14141846 C8.24778293 166.35227741 8.24832769 167.56313637 8.24888897 168.81068802 C8.0035579 171.95440839 7.34570212 174.16884712 6 177 C4.86922327 173.37776393 4.8725851 169.98580651 4.86869812 166.20593262 C4.86658241 165.52338394 4.86446669 164.84083526 4.86228687 164.13760328 C4.85629739 161.85148499 4.85728625 159.56542206 4.8581543 157.27929688 C4.85512218 155.63989671 4.85160058 154.00049739 4.84762573 152.36109924 C4.83974172 148.83127245 4.83459375 145.30145574 4.83133507 141.7716217 C4.82542414 136.19175117 4.8088841 130.61194438 4.78999329 125.03210449 C4.78365616 123.12195591 4.77733053 121.21180729 4.77101612 119.30165863 C4.76785031 118.34515506 4.7646845 117.38865149 4.76142275 116.40316296 C4.71933363 103.41282945 4.68635439 90.4225261 4.67407227 77.43212891 C4.66570156 68.66873219 4.64325026 59.90549371 4.6047166 51.14217615 C4.58492732 46.50417961 4.57256096 41.86641977 4.57755089 37.2283783 C4.58218504 32.86817162 4.56845997 28.50841431 4.54053879 24.14829826 C4.53360695 22.54710808 4.5335218 20.94587162 4.54073906 19.34468269 C4.54959052 17.16060577 4.53399701 14.9780227 4.51225281 12.79406738 C4.50986445 11.5714344 4.5074761 10.34880142 4.50501537 9.08911896 C3.90424867 5.41430051 2.75749208 4.38251861 0 2 C0 1.34 0 0.68 0 0 Z " fill="#363636" transform="translate(747,319)"/>
<path d="M0 0 C0 0.33 0 0.66 0 1 C-1.15628906 1.19916016 -1.15628906 1.19916016 -2.3359375 1.40234375 C-3.33882812 1.57894531 -4.34171875 1.75554688 -5.375 1.9375 C-6.87160156 2.19853516 -6.87160156 2.19853516 -8.3984375 2.46484375 C-10.96909656 2.87712062 -10.96909656 2.87712062 -13 4 C-15.6723621 4.13415472 -18.32250488 4.04318541 -21 4 C-14.50176993 -0.33215338 -7.55407017 -0.27863374 0 0 Z " fill="#141314" transform="translate(642,516)"/>
<path d="M0 0 C0.66 0.66 1.32 1.32 2 2 C-1.01324195 3.50662097 -3.68286377 3.17770373 -7 3 C-7.66 2.34 -8.32 1.68 -9 1 C-5.98675805 -0.50662097 -3.31713623 -0.17770373 0 0 Z " fill="#303131" transform="translate(736,617)"/>
<path d="M0 0 C0.33 0 0.66 0 1 0 C1.22162329 1.62324086 1.42689803 3.248721 1.625 4.875 C1.74101563 5.77992188 1.85703125 6.68484375 1.9765625 7.6171875 C1.98429688 8.40351562 1.99203125 9.18984375 2 10 C1.34 10.66 0.68 11.32 0 12 C-0.92844389 7.66726186 -0.92844389 4.33273814 0 0 Z " fill="#2D2D2D" transform="translate(523,699)"/>
</svg>
